<?xml version="1.0" encoding="UTF-8"?>
<svg xmlns="http://www.w3.org/2000/svg" xmlns:xlink="http://www.w3.org/1999/xlink" viewBox="0 0 152.43 149.53">
  <defs>
    <style>
      .cls-1 {
        fill: #fff;
      }

      .cls-2 {
        fill: url(#linear-gradient-2);
      }

      .cls-2, .cls-3, .cls-4, .cls-5 {
        mix-blend-mode: soft-light;
      }

      .cls-3 {
        fill: url(#linear-gradient-4);
      }

      .cls-6 {
        fill: url(#linear-gradient-3);
      }

      .cls-7 {
        fill: url(#_Градієнт_без_назви_13-2);
      }

      .cls-8 {
        isolation: isolate;
      }

      .cls-4 {
        fill: url(#linear-gradient-5);
      }

      .cls-5 {
        fill: url(#linear-gradient);
      }

      .cls-9 {
        fill: url(#_Градієнт_без_назви_13);
      }
    </style>
    <linearGradient id="_Градієнт_без_назви_13" data-name="Градієнт без назви 13" x1="-461.69" y1="380.93" x2="-335.33" y2="380.93" gradientTransform="translate(-425.85 209.63) rotate(123.19) scale(1 -1)" gradientUnits="userSpaceOnUse">
      <stop offset="0" stop-color="#8db636"/>
      <stop offset="1" stop-color="#009409"/>
    </linearGradient>
    <linearGradient id="linear-gradient" x1="-451.39" y1="378.78" x2="-243.94" y2="392.89" gradientTransform="translate(-425.85 209.63) rotate(123.19) scale(1 -1)" gradientUnits="userSpaceOnUse">
      <stop offset="0" stop-color="#fff" stop-opacity="0"/>
      <stop offset="1" stop-color="#fff"/>
    </linearGradient>
    <linearGradient id="_Градієнт_без_назви_13-2" data-name="Градієнт без назви 13" x1="-891.43" y1="111.13" x2="-831.08" y2="111.13" gradientTransform="translate(-819.64) rotate(-180) scale(1 -1)" xlink:href="#_Градієнт_без_назви_13"/>
    <linearGradient id="linear-gradient-2" x1="229.74" y1="-150.14" x2="362.25" y2="-141.13" gradientTransform="translate(-255.48 147.55) rotate(23.23)" xlink:href="#linear-gradient"/>
    <linearGradient id="linear-gradient-3" x1="117.2" y1="59.35" x2="-5.84" y2="62.52" gradientUnits="userSpaceOnUse">
      <stop offset="0" stop-color="#ff490d"/>
      <stop offset="1" stop-color="#ffb719"/>
    </linearGradient>
    <linearGradient id="linear-gradient-4" x1="17.12" y1="-19.5" x2="53.82" y2="158.41" gradientTransform="matrix(1,0,0,1,0,0)" xlink:href="#linear-gradient"/>
    <linearGradient id="linear-gradient-5" x1="23.48" y1="59.13" x2="102.45" y2="59.13" gradientTransform="matrix(1,0,0,1,0,0)" xlink:href="#linear-gradient"/>
  </defs>
  <g class="cls-8">
    <g id="_Шар_1" data-name="Шар 1">
      <g>
        <g>
          <path class="cls-9" d="M91.29,91.32c4.7-11.52,8.7-18.66,14.6-29.13,2.64-4.69,5.39-9.29,7.75-14.09,2.36-4.8,4.39-9.78,5.46-15.07-.64,5.35-2.3,10.56-4.29,15.59-2.02,5.01-4.36,9.9-6.69,14.74-4.71,9.65-8.94,19.51-12,29.61-2.99,10.07-4.57,20.53-3.17,30.5.24,1.77.57,3.53.99,5.27,1.5,6.16,4.16,11.92,7.93,16.6,46.66-3.03,77.14-115.81,8.11-133.13,13.85,21.65-84.5,62.44-21.48,133.13-3.68-15.66-8.93-25.26,2.8-54.02Z"/>
          <path class="cls-5" d="M101.83,145.26c46.66-3.03,77.14-115.81,8.11-133.13,11.84,6.85,19.91,19.37,22.81,32.72,2.91,13.34,1.25,27.38-2.77,40.45-2.96,9.66-7.26,19.01-13.58,26.89-5.89,7.36-13.63,13.38-22.5,16.47,1.5,6.16,4.16,11.92,7.93,16.6Z"/>
        </g>
        <g>
          <path class="cls-7" d="M20.26,75.91c.03-.06.05-.12.08-.18.16,9.29,21.46,8.27,38.38,16.47-.41,6.94.56,14.31,3.46,22.11-1.27-1.09-2.59-2.13-3.94-3.09-5.76-4.03-11.86-7.33-18.06-10.35-3.08-1.52-6.15-3.04-9.1-4.76s-5.8-3.65-8.23-6.09c2.23,2.62,4.96,4.81,7.79,6.78,2.84,1.95,5.82,3.73,8.77,5.48,5.92,3.47,11.65,7.22,16.85,11.52,5.15,4.31,9.69,9.31,12.46,15.11.5,1.02.75,1.63,1.34,3.24,1.38,3.81,2,7.81,1.65,11.63-25.87,14.86-81.86-34.28-51.44-67.88Z"/>
          <path class="cls-2" d="M71.7,143.79c-25.9,14.88-81.97-34.37-51.36-67.98-3.88,7.83-3.75,17.34-.58,25.47,3.16,8.13,9.01,15.01,15.77,20.55,4.99,4.1,10.58,7.55,16.73,9.51,5.73,1.84,11.98,2.3,17.79.81,1.38,3.81,2,7.81,1.65,11.63Z"/>
        </g>
        <g>
          <path class="cls-6" d="M109.93,12.29c.07.02.14.04.21.06-10.78-6.49-23.41-10.24-36.91-10.24-5.16,0-10.17.54-15.01,1.58-.55.12-1.09.24-1.63.37-14.51,3.45-27.3,11.32-36.91,22.1C8.42,38.81,1.57,55.48,1.57,73.77c0,7.47,1.15,14.67,3.28,21.42,1.56,5.04,3.69,9.84,6.27,14.32,2.21,3.83,4.76,7.43,7.61,10.77-.2-.31-.41-.62-.6-.93-.13-.22-.26-.43-.39-.65-.18-.3-.37-.6-.54-.91-.15-.27-.3-.54-.45-.81-.14-.26-.29-.51-.42-.77-.18-.33-.34-.67-.51-1-.1-.2-.2-.4-.3-.6-.19-.39-.37-.79-.54-1.19-.07-.15-.14-.29-.2-.43-.19-.44-.37-.89-.55-1.34-.04-.1-.08-.2-.12-.3-.19-.49-.37-.99-.54-1.48-.02-.06-.04-.11-.06-.17-.18-.53-.35-1.06-.51-1.59,0-.03-.02-.05-.02-.08-3.15-10.64-1.74-21.98,7.3-31.96.03-.06.05-.12.08-.18.16,9.29,21.46,8.27,38.38,16.47,6.89,2.85,8.67,1.42,8.71,1.05,3.84-39.78,52.52-65.46,42.5-81.12Z"/>
          <path class="cls-3" d="M19.12,120.72c-.12-.18-.23-.36-.34-.54-.22-.33-.43-.66-.64-1-.15-.23-.28-.47-.42-.71-.17-.28-.34-.57-.51-.85-.17-.29-.32-.58-.48-.87-.13-.24-.27-.47-.39-.71-.18-.35-.36-.7-.53-1.05-.09-.18-.19-.37-.28-.55-.19-.4-.37-.8-.55-1.2-.06-.14-.13-.28-.19-.42-.19-.44-.37-.89-.55-1.34-.04-.1-.08-.2-.12-.3-.19-.49-.37-.99-.54-1.48-.02-.06-.04-.11-.06-.17-.19-.54-.36-1.08-.52-1.63,0-.01,0-.03-.01-.04-2.42-8.16-2.14-16.74,2.2-24.79-2.18-13.73-.7-28,4.82-40.75,3.03-7,7.19-13.5,12.27-19.19,6.82-7.64,15.09-13.3,23.94-18.32.62-.35,1.31-.71,2.03-1.08-.55.12-1.09.24-1.63.37-14.51,3.45-27.3,11.32-36.91,22.1C8.42,38.86,1.57,55.53,1.57,73.81c0,7.47,1.15,14.67,3.28,21.42,1.56,5.04,3.69,9.84,6.27,14.32,2.34,4.05,5.07,7.84,8.12,11.34-.04-.06-.08-.11-.12-.17Z"/>
          <path class="cls-4" d="M102.45,33.67c-8.2-5.96-18.3-9.49-29.22-9.49-27.48,0-49.75,22.27-49.75,49.75,0,2.48.19,4.91.54,7.3,6.85,4.02,22.01,4.98,34.7,11.14.95.41,3.45,1.42,5.5,1.65.83.1,1.66.12,2.22-.01.63-.15.96-.47.96-.52,2.35-25.33,22.91-44.85,35.04-59.81Z"/>
        </g>
        <g>
          <path class="cls-1" d="M73.02,73.81v-7.91c0-1.16-.36-2.23-.98-3.11v-15.7c0-8.43-3.05-16.67-8.77-23.64l-.25-.3v39.64c-.61.89-.98,1.95-.98,3.11v27.64c.99.88,1.84,1.27,2.56,1.35,1.47.15,2.3-.64,2.84-1.44.67-7.02,2.67-13.48,5.57-19.64Z"/>
          <path class="cls-1" d="M33.15,56.8c.3.24.55.52.73.85.53.94,1.46,3.04,1.21,5.84-1.88.91-3.19,2.83-3.19,5.05v15.73c3.38.92,7.25,1.77,11.3,2.82v-18.54c0-2.13-1.19-3.98-2.95-4.93-.09-2.24.1-4.72,1.36-6.55.51-.74,1.31-1.07,1.97-1.65.58-.51,1.08-1.11,1.47-1.78.58-.98.96-2.08,1.12-3.2.04-.22.06-.45.06-.68l-.69-15.78-.47-10.82h-1l-1.58,23.13h-.75l-1.58-23.13h-.92l-1.27,23.13h-.7l-1.69-23.13h-1.16l-1.08,23.13h-.88l-1.81-23.13h-1.04l-.31,10.56-.46,16.03s-.3,3.29,4.28,7.05Z"/>
        </g>
      </g>
    </g>
  </g>
</svg>