<?xml version="1.0" encoding="UTF-8"?>
<svg xmlns="http://www.w3.org/2000/svg" version="1.1" xmlns:xlink="http://www.w3.org/1999/xlink" viewBox="0 0 262.1 207.8">
  <!-- Generator: Adobe Illustrator 29.5.1, SVG Export Plug-In . SVG Version: 2.1.0 Build 141)  -->
  <defs>
    <style>
      .st0 {
        fill: url(#linear-gradient1);
      }

      .st0, .st1, .st2, .st3 {
        mix-blend-mode: soft-light;
      }

      .st4 {
        fill: url(#linear-gradient2);
      }

      .st5 {
        fill: #fff;
      }

      .st1 {
        fill: url(#linear-gradient3);
      }

      .st2 {
        fill: url(#linear-gradient4);
      }

      .st6 {
        isolation: isolate;
      }

      .st7 {
        fill: #009409;
      }

      .st8 {
        fill: url(#_Градієнт_без_назви_131);
      }

      .st3 {
        fill: url(#linear-gradient);
      }

      .st9 {
        fill: url(#_Градієнт_без_назви_13);
      }
    </style>
    <linearGradient id="_Градієнт_без_назви_13" data-name="Градієнт без назви 13" x1="200.4" y1="51.9" x2="326.8" y2="51.9" gradientTransform="translate(267.4 -165.3) rotate(123.2) scale(1 -1)" gradientUnits="userSpaceOnUse">
      <stop offset="0" stop-color="#8db636"/>
      <stop offset="1" stop-color="#009409"/>
    </linearGradient>
    <linearGradient id="linear-gradient" x1="210.7" y1="49.8" x2="418.2" y2="63.9" gradientTransform="translate(267.4 -165.3) rotate(123.2) scale(1 -1)" gradientUnits="userSpaceOnUse">
      <stop offset="0" stop-color="#fff" stop-opacity="0"/>
      <stop offset="1" stop-color="#fff"/>
    </linearGradient>
    <linearGradient id="_Градієнт_без_назви_131" data-name="Градієнт без назви 13" x1="-27" y1="110.2" x2="33.3" y2="110.2" gradientTransform="translate(100.3) rotate(-180) scale(1 -1)" xlink:href="#_Градієнт_без_назви_13"/>
    <linearGradient id="linear-gradient1" x1="309" y1="10.3" x2="441.5" y2="19.3" gradientTransform="translate(-209.5 -32.1) rotate(23.2)" xlink:href="#linear-gradient"/>
    <linearGradient id="linear-gradient2" x1="172.7" y1="58.4" x2="49.7" y2="61.6" gradientUnits="userSpaceOnUse">
      <stop offset="0" stop-color="#ff490d"/>
      <stop offset="1" stop-color="#ffb719"/>
    </linearGradient>
    <linearGradient id="linear-gradient3" x1="72.7" y1="-20.4" x2="109.4" y2="157.5" gradientTransform="matrix(1,0,0,1,0,0)" xlink:href="#linear-gradient"/>
    <linearGradient id="linear-gradient4" x1="79" y1="58.2" x2="158" y2="58.2" gradientTransform="matrix(1,0,0,1,0,0)" xlink:href="#linear-gradient"/>
  </defs>
  <g class="st6">
    <g id="_Шар_1" data-name="Шар_1">
      <g>
        <g>
          <g>
            <path class="st9" d="M146.8,90.4c4.7-11.5,8.7-18.7,14.6-29.1,2.6-4.7,5.4-9.3,7.7-14.1,2.4-4.8,4.4-9.8,5.5-15.1-.6,5.4-2.3,10.6-4.3,15.6-2,5-4.4,9.9-6.7,14.7-4.7,9.6-8.9,19.5-12,29.6-3,10.1-4.6,20.5-3.2,30.5.2,1.8.6,3.5,1,5.3,1.5,6.2,4.2,11.9,7.9,16.6,46.7-3,77.1-115.8,8.1-133.1,13.9,21.6-84.5,62.4-21.5,133.1-3.7-15.7-8.9-25.3,2.8-54Z"/>
            <path class="st3" d="M157.4,144.3c46.7-3,77.1-115.8,8.1-133.1,11.8,6.9,19.9,19.4,22.8,32.7,2.9,13.3,1.2,27.4-2.8,40.5-3,9.7-7.3,19-13.6,26.9-5.9,7.4-13.6,13.4-22.5,16.5,1.5,6.2,4.2,11.9,7.9,16.6Z"/>
          </g>
          <g>
            <path class="st8" d="M75.8,75c0,0,0-.1,0-.2.2,9.3,21.5,8.3,38.4,16.5-.4,6.9.6,14.3,3.5,22.1-1.3-1.1-2.6-2.1-3.9-3.1-5.8-4-11.9-7.3-18.1-10.3-3.1-1.5-6.1-3-9.1-4.8s-5.8-3.7-8.2-6.1c2.2,2.6,5,4.8,7.8,6.8,2.8,2,5.8,3.7,8.8,5.5,5.9,3.5,11.6,7.2,16.8,11.5,5.1,4.3,9.7,9.3,12.5,15.1.5,1,.7,1.6,1.3,3.2,1.4,3.8,2,7.8,1.6,11.6-25.9,14.9-81.9-34.3-51.4-67.9Z"/>
            <path class="st0" d="M127.2,142.9c-25.9,14.9-82-34.4-51.4-68-3.9,7.8-3.8,17.3-.6,25.5,3.2,8.1,9,15,15.8,20.5,5,4.1,10.6,7.6,16.7,9.5,5.7,1.8,12,2.3,17.8.8,1.4,3.8,2,7.8,1.6,11.6Z"/>
          </g>
          <g>
            <path class="st4" d="M165.5,11.4c0,0,.1,0,.2,0-10.8-6.5-23.4-10.2-36.9-10.2s-10.2.5-15,1.6c-.5.1-1.1.2-1.6.4-14.5,3.4-27.3,11.3-36.9,22.1-11.3,12.7-18.1,29.3-18.1,47.6s1.1,14.7,3.3,21.4c1.6,5,3.7,9.8,6.3,14.3,2.2,3.8,4.8,7.4,7.6,10.8-.2-.3-.4-.6-.6-.9-.1-.2-.3-.4-.4-.7-.2-.3-.4-.6-.5-.9-.2-.3-.3-.5-.4-.8-.1-.3-.3-.5-.4-.8-.2-.3-.3-.7-.5-1,0-.2-.2-.4-.3-.6-.2-.4-.4-.8-.5-1.2,0-.1-.1-.3-.2-.4-.2-.4-.4-.9-.6-1.3,0-.1,0-.2-.1-.3-.2-.5-.4-1-.5-1.5,0,0,0-.1,0-.2-.2-.5-.4-1.1-.5-1.6,0,0,0,0,0,0-3.2-10.6-1.7-22,7.3-32,0,0,0-.1,0-.2.2,9.3,21.5,8.3,38.4,16.5,6.9,2.9,8.7,1.4,8.7,1,3.8-39.8,52.5-65.5,42.5-81.1Z"/>
            <path class="st1" d="M74.7,119.8c-.1-.2-.2-.4-.3-.5-.2-.3-.4-.7-.6-1-.1-.2-.3-.5-.4-.7-.2-.3-.3-.6-.5-.9-.2-.3-.3-.6-.5-.9-.1-.2-.3-.5-.4-.7-.2-.3-.4-.7-.5-1,0-.2-.2-.4-.3-.6-.2-.4-.4-.8-.6-1.2,0-.1-.1-.3-.2-.4-.2-.4-.4-.9-.6-1.3,0-.1,0-.2-.1-.3-.2-.5-.4-1-.5-1.5,0,0,0-.1,0-.2-.2-.5-.4-1.1-.5-1.6,0,0,0,0,0,0-2.4-8.2-2.1-16.7,2.2-24.8-2.2-13.7-.7-28,4.8-40.8,3-7,7.2-13.5,12.3-19.2,6.8-7.6,15.1-13.3,23.9-18.3.6-.4,1.3-.7,2-1.1-.5.1-1.1.2-1.6.4-14.5,3.4-27.3,11.3-36.9,22.1-11.3,12.7-18.1,29.3-18.1,47.6s1.1,14.7,3.3,21.4c1.6,5,3.7,9.8,6.3,14.3,2.3,4,5.1,7.8,8.1,11.3,0,0,0-.1-.1-.2Z"/>
            <path class="st2" d="M158,32.7c-8.2-6-18.3-9.5-29.2-9.5-27.5,0-49.8,22.3-49.8,49.7s.2,4.9.5,7.3c6.8,4,22,5,34.7,11.1.9.4,3.5,1.4,5.5,1.7.8,0,1.7.1,2.2,0s1-.5,1-.5c2.4-25.3,22.9-44.8,35-59.8Z"/>
          </g>
          <g>
            <path class="st5" d="M128.6,72.9v-7.9c0-1.2-.4-2.2-1-3.1v-15.7c0-8.4-3.1-16.7-8.8-23.6l-.3-.3v39.6c-.6.9-1,2-1,3.1v27.6c1,.9,1.8,1.3,2.6,1.3,1.5.2,2.3-.6,2.8-1.4.7-7,2.7-13.5,5.6-19.6Z"/>
            <path class="st5" d="M88.7,55.9c.3.2.5.5.7.8.5.9,1.5,3,1.2,5.8-1.9.9-3.2,2.8-3.2,5v15.7c3.4.9,7.2,1.8,11.3,2.8v-18.5c0-2.1-1.2-4-3-4.9,0-2.2,0-4.7,1.4-6.5.5-.7,1.3-1.1,2-1.6.6-.5,1.1-1.1,1.5-1.8.6-1,1-2.1,1.1-3.2,0-.2,0-.4,0-.7l-.7-15.8-.5-10.8h-1l-1.6,23.1h-.8l-1.6-23.1h-.9l-1.3,23.1h-.7l-1.7-23.1h-1.2l-1.1,23.1h-.9l-1.8-23.1h-1l-.3,10.6-.5,16s-.3,3.3,4.3,7.1Z"/>
          </g>
        </g>
        <g>
          <path class="st7" d="M2.5,205.2v-33.6h7.8l18.5,22.4h-3.7v-22.4h9.3v33.6h-7.8l-18.5-22.4h3.7v22.4H2.5Z"/>
          <path class="st7" d="M51.7,205.6c-2.1,0-4-.4-5.7-1.2-1.7-.8-3-2.1-3.9-3.9-.9-1.8-1.4-4-1.4-6.7v-14.5h9.1v13.1c0,2,.4,3.5,1.1,4.3.8.9,1.8,1.3,3.2,1.3s1.7-.2,2.4-.6,1.3-1.1,1.8-2c.4-.9.7-2.1.7-3.5v-12.5h9.1v26h-8.7v-7.3l1.7,2.1c-.9,1.9-2.2,3.4-3.9,4.3-1.7.9-3.5,1.4-5.5,1.4Z"/>
          <path class="st7" d="M71.2,186.9v-6.8h18.9v6.8h-18.9ZM85.6,205.6c-3.3,0-5.9-.8-7.8-2.5-1.9-1.6-2.8-4.1-2.8-7.5v-22.3h9.1v22.2c0,.9.3,1.7.8,2.2.5.5,1.2.8,2,.8s2-.3,2.8-.8l2.3,6.4c-.8.5-1.7.9-2.8,1.1-1.1.2-2.3.4-3.5.4Z"/>
          <path class="st7" d="M95.4,205.2v-26h8.7v7.6l-1.3-2.2c.8-2,2-3.4,3.7-4.4,1.7-1,3.8-1.5,6.3-1.5v8.2c-.4,0-.8-.1-1.1-.1-.3,0-.6,0-1,0-1.9,0-3.4.5-4.5,1.5-1.2,1-1.7,2.6-1.7,4.9v12h-9.1Z"/>
          <path class="st7" d="M121.2,176.3c-1.7,0-3-.5-4-1.4-1-.9-1.5-2.1-1.5-3.5s.5-2.5,1.5-3.5c1-.9,2.4-1.4,4-1.4s3,.4,4,1.3c1,.9,1.5,2,1.5,3.4s-.5,2.6-1.5,3.6c-1,.9-2.4,1.4-4.1,1.4ZM116.6,205.2v-26h9.1v26h-9.1Z"/>
          <path class="st5" d="M148.9,205.9c-2.7,0-5.1-.4-7.4-1.3-2.3-.8-4.2-2.1-5.9-3.6-1.6-1.6-2.9-3.4-3.9-5.5-.9-2.1-1.4-4.5-1.4-7s.5-4.9,1.4-7c.9-2.1,2.2-4,3.9-5.5,1.7-1.6,3.6-2.8,5.9-3.6,2.3-.8,4.8-1.3,7.5-1.3s6,.5,8.5,1.6c2.5,1.1,4.6,2.6,6.2,4.6l-6,5.5c-1.2-1.2-2.4-2.2-3.7-2.8-1.3-.6-2.8-.9-4.4-.9s-2.8.2-3.9.7c-1.2.4-2.2,1.1-3,1.9-.8.8-1.5,1.9-1.9,3s-.7,2.5-.7,4,.2,2.7.7,3.9c.5,1.2,1.1,2.2,1.9,3,.8.8,1.8,1.5,3,2,1.2.5,2.5.7,3.9.7s2.8-.2,4.1-.7c1.3-.5,2.7-1.3,4.1-2.4l5.3,6.7c-1.9,1.4-4.1,2.4-6.7,3.2-2.5.7-5,1.1-7.4,1.1ZM154.6,200.3v-12.7h8.4v13.9l-8.4-1.2Z"/>
          <path class="st5" d="M168.6,205.2v-26h8.7v7.6l-1.3-2.2c.8-2,2-3.4,3.7-4.4,1.7-1,3.8-1.5,6.3-1.5v8.2c-.4,0-.8-.1-1.1-.1-.3,0-.6,0-1,0-1.9,0-3.4.5-4.5,1.5-1.2,1-1.7,2.6-1.7,4.9v12h-9.1Z"/>
          <path class="st5" d="M194.3,176.3c-1.7,0-3-.5-4-1.4-1-.9-1.5-2.1-1.5-3.5s.5-2.5,1.5-3.5c1-.9,2.4-1.4,4-1.4s3,.4,4,1.3c1,.9,1.5,2,1.5,3.4s-.5,2.6-1.5,3.6c-1,.9-2.4,1.4-4.1,1.4ZM189.8,205.2v-26h9.1v26h-9.1Z"/>
          <path class="st5" d="M216.1,205.6c-2.4,0-4.5-.6-6.5-1.7-1.9-1.1-3.5-2.7-4.6-4.7s-1.7-4.4-1.7-7.2.6-5.1,1.7-7.1,2.7-3.5,4.6-4.6c1.9-1.1,4.1-1.6,6.5-1.6s4.1.5,5.7,1.4c1.6,1,2.7,2.4,3.5,4.4s1.2,4.5,1.2,7.5-.4,5.6-1.2,7.6c-.8,2-1.9,3.5-3.5,4.4-1.5,1-3.5,1.4-5.8,1.4ZM218,198.4c1,0,1.9-.2,2.8-.7.8-.5,1.5-1.2,1.9-2.1.5-.9.7-2.1.7-3.4s-.2-2.4-.7-3.3c-.5-.9-1.1-1.6-1.9-2.1-.8-.5-1.7-.7-2.8-.7s-2,.2-2.8.7c-.8.5-1.5,1.2-1.9,2.1-.5.9-.7,2-.7,3.3s.2,2.4.7,3.4c.5.9,1.1,1.7,1.9,2.1.8.5,1.8.7,2.8.7ZM223.7,205.2v-13.1s-.4-8.6-.4-8.6v-14h9.1v35.6h-8.7Z"/>
          <path class="st5" d="M247.7,205.6c-2.2,0-4.4-.3-6.5-.8s-3.8-1.2-5.1-1.9l2.7-6.2c1.2.7,2.6,1.3,4.3,1.8,1.6.4,3.2.6,4.8.6s2.6-.2,3.2-.5c.6-.3.9-.8.9-1.3s-.3-.9-.8-1.1c-.6-.2-1.3-.4-2.2-.6s-1.9-.3-3-.4c-1.1-.2-2.2-.4-3.3-.6-1.1-.3-2.1-.7-3-1.2-.9-.6-1.6-1.3-2.2-2.3-.5-1-.8-2.2-.8-3.6s.5-3.1,1.5-4.4c1-1.3,2.4-2.3,4.3-3.1,1.9-.8,4.2-1.1,6.9-1.1s3.7.2,5.5.6c1.9.4,3.4.9,4.7,1.7l-2.7,6.2c-1.3-.7-2.6-1.2-3.8-1.5-1.3-.3-2.5-.4-3.6-.4s-2.6.2-3.2.5c-.6.4-.9.8-.9,1.3s.3.9.8,1.2c.5.3,1.3.5,2.2.6.9.1,1.9.3,3,.4,1.1.1,2.2.4,3.3.6,1.1.3,2.1.7,3,1.3.9.6,1.6,1.3,2.2,2.3.5.9.8,2.2.8,3.6s-.5,3-1.5,4.3c-1,1.3-2.4,2.3-4.3,3.1-1.9.8-4.3,1.2-7.1,1.2Z"/>
        </g>
      </g>
    </g>
  </g>
</svg>